# xmcd
#
# Track frame offsets:
#       150
#       41241
#       54412
#       99393
#       117502
#       134799
#       143013
#       195127
#
# Disc length: 2775 seconds
#
# Revision: 1
# Processed by: cddbd v1.4PL0 Copyright (c) Steve Scherf et al.
# Submitted via: MusiCat 1.1
#
DISCID=700ad508
DTITLE=John Mayall and the Bluesbreakers - The Diary of a Band  - Volume One
DYEAR=1968
DGENRE=
TTITLE0=Blood on the night
TTITLE1=Happy Birthday (?)
TTITLE2=I Can't quit you baby
TTITLE3=Anzio Annie
TTITLE4=Snowy Wood
TTITLE5=The Lesson
TTITLE6=My Own Fault
TTITLE7=God save The Queen !
EXTD=1968\nDeram\n\nLive recordings made by band  on tour late 1967 UK Holland
EXTD=Ireland\r\n
EXTT0=
EXTT1=
EXTT2=
EXTT3=Opens with interview with Keef Hartley\r\n
EXTT4=includes interviews with Keef Hartley and J Mayall\r\n
EXTT5=
EXTT6=
EXTT7=Ballroom tradition that featured band closes with GSTQ - it's never soun
EXTT7=ded like this!\r\n
PLAYORDER=
